<?xml version="1.0" ?><!DOCTYPE svg  PUBLIC '-//W3C//DTD SVG 1.1//EN'  'http://www.w3.org/Graphics/SVG/1.1/DTD/svg11.dtd'><svg enable-background="new 0 0 45 44" height="44px" id="Layer_1" version="1.1" viewBox="0 0 45 44" width="45px" xml:space="preserve" xmlns="http://www.w3.org/2000/svg" xmlns:xlink="http://www.w3.org/1999/xlink"><path d="M37.5,29c-2.411,0-4.551,1.143-5.923,2.91L15.36,27.713l14.003-13.026C30.041,14.888,30.757,15,31.5,15  c4.143,0,7.5-3.358,7.5-7.5S35.643,0,31.5,0S24,3.358,24,7.5c0,1.193,0.286,2.318,0.782,3.32L11.509,23.168  C10.349,22.433,8.977,22,7.5,22C3.357,22,0,25.357,0,29.5S3.357,37,7.5,37c2.683,0,5.028-1.412,6.354-3.529l16.246,4.205  C30.666,41.258,33.758,44,37.5,44c4.143,0,7.5-3.357,7.5-7.5S41.643,29,37.5,29z" fill="#231F20"/></svg>